<svg xmlns="http://www.w3.org/2000/svg" width="276" height="239" viewBox="0 0 276 239" fill="none">
<path d="M136.961 41.0217C132.06 50.6181 120.92 55.4164 103.519 55.4164H82.6175L82.9881 16.2892H96.1674C103.272 16.2892 109.038 14.9301 113.445 12.2118C117.604 9.28754 119.684 5.23068 119.684 0H154.239C154.239 5.21008 156.318 9.28754 160.478 12.2118C164.885 14.9301 170.651 16.2892 177.755 16.2892H190.935C211.507 16.2892 227.939 22.0347 240.192 33.5052C252.692 44.7697 258.931 58.3406 258.931 74.218V74.5886C258.931 86.718 256.295 98.7033 251.188 109.7H275.941L222.894 193.309V136.101H196.515L208.953 109.947C214.266 98.7857 217.025 86.5739 217.025 74.218C217.025 68.7813 214.698 64.292 210.044 60.75C205.391 57.208 199.151 55.4164 191.305 55.4164H170.404C153.003 55.4164 141.862 50.6181 136.961 41.0217Z"/>
<path d="M139.021 197.901C143.922 188.304 155.062 183.506 172.463 183.506H193.364L192.994 222.633H179.794C172.689 222.633 166.924 223.992 162.517 226.711C158.357 229.635 156.277 233.692 156.277 238.923H121.723C121.723 233.712 119.643 229.635 115.483 226.711C111.076 223.992 105.311 222.633 98.2061 222.633H85.0268C64.4548 222.633 48.0219 216.888 35.7693 205.417C23.2696 194.153 17.0301 180.582 17.0301 164.705V164.313C17.0301 152.184 19.6659 140.219 24.7523 129.222H0L53.0671 45.614V102.822H79.4462L67.0083 128.955C61.6954 140.116 58.936 152.328 58.936 164.705C58.936 170.141 61.263 174.631 65.9169 178.173C70.5708 181.715 76.8104 183.486 84.6561 183.486H105.558C122.958 183.486 134.099 188.284 139 197.901H139.021Z"/>
</svg>