<?xml version="1.0" encoding="UTF-8" standalone="no"?>
<!-- Created with Inkscape (http://www.inkscape.org/) -->

<svg
   width="149.45543"
   height="149.45541"
   viewBox="0 0 149.45543 149.45541"
   version="1.1"
   id="svg1"
   xml:space="preserve"
   xmlns="http://www.w3.org/2000/svg"
   xmlns:svg="http://www.w3.org/2000/svg"><defs
     id="defs1" /><g
     id="layer1"
     transform="translate(-0.19007874,9.0170061)"><circle
       style="fill:#2a2add;fill-opacity:1;stroke-width:7.57006"
       id="path1"
       cx="74.917793"
       cy="65.710709"
       r="74.727715" /><g
       style="fill:none"
       id="g1"
       transform="matrix(0.44566763,0,0,0.44566763,13.935204,12.957869)"><path
         d="M 136.961,41.0217 C 132.06,50.6181 120.92,55.4164 103.519,55.4164 H 82.6175 l 0.3706,-39.1272 h 13.1793 c 7.1046,0 12.8706,-1.3591 17.2776,-4.0774 C 117.604,9.28754 119.684,5.23068 119.684,0 h 34.555 c 0,5.21008 2.079,9.28754 6.239,12.2118 4.407,2.7183 10.173,4.0774 17.277,4.0774 h 13.18 c 20.572,0 37.004,5.7455 49.257,17.216 12.5,11.2645 18.739,24.8354 18.739,40.7128 v 0.3706 c 0,12.1294 -2.636,24.1147 -7.743,35.1114 h 24.753 l -53.047,83.609 v -57.208 h -26.379 l 12.438,-26.154 c 5.313,-11.1613 8.072,-23.3731 8.072,-35.729 0,-5.4367 -2.327,-9.926 -6.981,-13.468 -4.653,-3.542 -10.893,-5.3336 -18.739,-5.3336 h -20.901 c -17.401,0 -28.542,-4.7983 -33.443,-14.3947 z"
         fill="#ffffff"
         id="path1-0" /><path
         d="m 139.021,197.901 c 4.901,-9.597 16.041,-14.395 33.442,-14.395 h 20.901 l -0.37,39.127 h -13.2 c -7.105,0 -12.87,1.359 -17.277,4.078 -4.16,2.924 -6.24,6.981 -6.24,12.212 h -34.554 c 0,-5.211 -2.08,-9.288 -6.24,-12.212 -4.407,-2.719 -10.172,-4.078 -17.2769,-4.078 H 85.0268 c -20.572,0 -37.0049,-5.745 -49.2575,-17.216 C 23.2696,194.153 17.0301,180.582 17.0301,164.705 v -0.392 c 0,-12.129 2.6358,-24.094 7.7222,-35.091 H 0 L 53.0671,45.614 v 57.208 h 26.3791 l -12.4379,26.133 c -5.3129,11.161 -8.0723,23.373 -8.0723,35.75 0,5.436 2.327,9.926 6.9809,13.468 4.6539,3.542 10.8935,5.313 18.7392,5.313 h 20.9019 c 17.4,0 28.541,4.798 33.442,14.415 z"
         fill="#ffffff"
         id="path2" /></g></g></svg>
